<?xml version="1.0" encoding="utf-8"?>
<!-- Generator: Adobe Illustrator 17.0.0, SVG Export Plug-In . SVG Version: 6.00 Build 0)  -->
<!DOCTYPE svg PUBLIC "-//W3C//DTD SVG 1.1//EN" "http://www.w3.org/Graphics/SVG/1.1/DTD/svg11.dtd">
<svg version="1.1" id="图层_1" xmlns="http://www.w3.org/2000/svg" xmlns:xlink="http://www.w3.org/1999/xlink" x="0px" y="0px"
	 width="90px" height="12px" viewBox="0 0 90 12" enable-background="new 0 0 90 12" xml:space="preserve">
<linearGradient id="SVGID_1_" gradientUnits="userSpaceOnUse" x1="1.737917e-07" y1="6" x2="90" y2="6">
	<stop  offset="0" style="stop-color:#FF3CAF"/>
	<stop  offset="1" style="stop-color:#FFD228"/>
</linearGradient>
<path fill="url(#SVGID_1_)" d="M9.15,11.355c-0.339,0-0.639-0.123-0.887-0.356c-0.259-0.244-0.389-0.557-0.389-0.931V5.862
	c0-0.391-0.066-0.748-0.202-1.094C7.536,4.43,7.351,4.144,7.112,3.891c-0.244-0.254-0.529-0.46-0.85-0.605
	C5.939,3.137,5.586,3.062,5.204,3.062c-0.356,0-0.685,0.067-1.008,0.205c-0.318,0.14-0.588,0.328-0.823,0.57
	C3.135,4.083,2.943,4.372,2.801,4.696C2.659,5.019,2.595,5.358,2.595,5.734v4.271c0,0.37-0.134,0.69-0.393,0.954
	c-0.256,0.261-0.559,0.395-0.907,0.395c-0.338,0-0.637-0.123-0.892-0.353C0.138,10.76,0,10.445,0,10.068V5.862
	c0.015-0.763,0.162-1.48,0.431-2.141c0.268-0.655,0.637-1.243,1.093-1.736c0.451-0.495,1.002-0.895,1.636-1.182
	C3.79,0.516,4.484,0.369,5.224,0.369c0.68,0,1.343,0.13,1.974,0.394c0.626,0.267,1.18,0.638,1.652,1.103
	c0.473,0.472,0.855,1.037,1.141,1.679c0.286,0.653,0.433,1.368,0.433,2.123v4.338c0,0.37-0.129,0.687-0.383,0.941
	c-0.241,0.251-0.539,0.386-0.877,0.408H9.156H9.15z M32.931,4.021c-0.276-0.662-0.656-1.249-1.122-1.74
	c-0.472-0.497-1.023-0.899-1.642-1.19c-0.617-0.293-1.289-0.442-2.002-0.442h-0.004c-0.72,0.029-1.405,0.191-2.043,0.484
	c-0.632,0.293-1.191,0.692-1.657,1.178c-0.473,0.488-0.846,1.07-1.112,1.725c-0.263,0.651-0.396,1.367-0.396,2.125
	c0,0.778,0.137,1.511,0.41,2.177c0.269,0.671,0.636,1.24,1.116,1.734c0.471,0.492,1.029,0.879,1.656,1.149
	c0.627,0.27,1.303,0.409,2.018,0.409c0.726,0,1.414-0.143,2.043-0.433c0.629-0.285,1.182-0.681,1.643-1.18
	c0.466-0.496,0.835-1.08,1.104-1.73c0.275-0.654,0.412-1.368,0.412-2.128C33.355,5.408,33.213,4.686,32.931,4.021z M30.59,7.237
	c-0.143,0.35-0.333,0.657-0.57,0.908c-0.238,0.259-0.524,0.466-0.847,0.613c-0.333,0.152-0.666,0.225-1.02,0.225
	c-0.351,0-0.694-0.077-1.017-0.222c-0.327-0.149-0.612-0.358-0.846-0.616c-0.238-0.254-0.433-0.56-0.577-0.909
	c-0.14-0.34-0.21-0.698-0.21-1.075c0-0.399,0.071-0.768,0.21-1.103c0.141-0.339,0.334-0.64,0.574-0.889
	c0.238-0.252,0.523-0.451,0.847-0.59c0.32-0.144,0.662-0.216,1.019-0.216V3.068l0.002,0.294c0.768,0.054,1.398,0.345,1.875,0.868
	c0.475,0.524,0.738,1.176,0.773,1.931C30.803,6.536,30.733,6.893,30.59,7.237z M16.746,11.416c0.73,0,1.421-0.146,2.055-0.43
	c0.63-0.285,1.189-0.683,1.663-1.183c0.468-0.496,0.845-1.083,1.114-1.741c0.272-0.663,0.409-1.38,0.409-2.138l-0.003-4.219
	c-0.013-0.158-0.046-0.3-0.092-0.429c-0.052-0.155-0.149-0.308-0.305-0.47c-0.279-0.259-0.588-0.392-0.915-0.392
	c-0.295,0-0.593,0.133-0.922,0.453c-0.045,0.071-0.092,0.133-0.196,0.256c-0.103,0.202-0.154,0.422-0.154,0.655v4.275
	c0,0.386-0.073,0.749-0.212,1.073c-0.14,0.335-0.33,0.606-0.574,0.837C18.365,8.2,18.087,8.378,17.758,8.52
	c-0.32,0.136-0.653,0.205-0.992,0.205c-0.356,0-0.686-0.073-1.018-0.225c-0.323-0.147-0.604-0.346-0.848-0.604
	c-0.238-0.249-0.431-0.548-0.571-0.885c-0.141-0.34-0.209-0.693-0.209-1.087V1.8c0-0.365-0.133-0.691-0.391-0.958
	c-0.251-0.266-0.546-0.413-0.904-0.429c-0.35,0.016-0.654,0.157-0.903,0.418c-0.249,0.264-0.377,0.582-0.377,0.947v4.321
	c0,0.724,0.148,1.426,0.43,2.084c0.284,0.654,0.667,1.23,1.138,1.713c0.476,0.485,1.033,0.874,1.654,1.144
	c0.566,0.255,1.168,0.381,1.785,0.381L16.746,11.416z M45.558,11.416c0.336,0,0.644-0.118,0.909-0.362
	c0.269-0.252,0.407-0.546,0.407-0.875V4.315c0-0.545-0.105-1.06-0.307-1.527c-0.206-0.474-0.487-0.89-0.836-1.232
	c-0.352-0.347-0.762-0.623-1.214-0.822c-0.456-0.195-0.939-0.3-1.44-0.3c-0.8,0-1.63,0.325-2.474,0.97
	c-0.369-0.313-0.752-0.552-1.141-0.707c-0.439-0.172-0.888-0.263-1.328-0.263c-0.523,0-1.02,0.107-1.482,0.316
	c-0.45,0.201-0.854,0.483-1.199,0.844c-0.332,0.356-0.601,0.77-0.799,1.237c-0.197,0.47-0.298,0.969-0.298,1.485l0.002,5.77
	c-0.036,0.382,0.096,0.718,0.383,0.981c0.273,0.232,0.578,0.35,0.909,0.35c0.319,0,0.6-0.118,0.841-0.355
	c0.234-0.23,0.38-0.489,0.435-0.838V4.406c0.014-0.376,0.135-0.674,0.373-0.908c0.237-0.235,0.511-0.351,0.834-0.351
	c0.299,0,0.566,0.116,0.813,0.347c0.242,0.225,0.365,0.519,0.373,0.889v5.797c0,0.342,0.139,0.647,0.402,0.887
	c0.254,0.234,0.546,0.35,0.875,0.35c0.362,0,0.671-0.133,0.923-0.396c0.246-0.266,0.375-0.585,0.375-0.952V4.382
	c0-0.417,0.114-0.712,0.35-0.912c0.255-0.217,0.528-0.323,0.832-0.323c0.359,0,0.645,0.121,0.87,0.363
	c0.229,0.248,0.337,0.533,0.337,0.872v5.686c0,0.367,0.126,0.686,0.376,0.952C44.91,11.283,45.212,11.416,45.558,11.416
	 M50.064,11.416c0.349,0,0.658-0.135,0.917-0.402c0.264-0.273,0.398-0.619,0.398-1.032V1.91c0-0.396-0.134-0.734-0.398-1.003
	c-0.263-0.272-0.57-0.412-0.917-0.412c-0.369,0-0.693,0.14-0.958,0.409c-0.266,0.271-0.401,0.609-0.401,1.006v8.072
	c0,0.413,0.135,0.759,0.401,1.032C49.369,11.28,49.691,11.416,50.064,11.416 M54.037,11.416c0.377,0,0.701-0.141,0.966-0.418
	c0.259-0.279,0.396-0.62,0.396-0.992c0-0.389-0.133-0.732-0.397-1.014c-0.265-0.277-0.591-0.417-0.965-0.417
	c-0.359,0-0.672,0.141-0.931,0.422c-0.253,0.277-0.381,0.62-0.381,1.009c0,0.372,0.132,0.713,0.381,0.987
	C53.363,11.275,53.675,11.416,54.037,11.416 M61.399,11.416c0.722,0,1.393-0.133,1.989-0.396c0.602-0.272,1.155-0.671,1.617-1.172
	c0.127-0.107,0.223-0.251,0.276-0.42c0.051-0.153,0.077-0.302,0.077-0.454c0-0.342-0.138-0.65-0.402-0.905
	c-0.252-0.29-0.56-0.44-0.891-0.44c-0.37,0-0.644,0.104-0.796,0.289c-0.577,0.541-1.19,0.807-1.885,0.807L61.232,8.73
	c-0.299,0-0.579-0.061-0.841-0.186c-0.319-0.145-0.595-0.349-0.846-0.622c-0.25-0.268-0.444-0.57-0.598-0.927
	c-0.149-0.347-0.222-0.699-0.222-1.072c0-0.352,0.072-0.705,0.21-1.042c0.14-0.332,0.338-0.632,0.585-0.896
	c0.247-0.262,0.535-0.473,0.864-0.629c0.321-0.152,0.662-0.23,1.015-0.23c0.661,0,1.234,0.235,1.734,0.707
	C63.361,4.079,63.668,4.2,64.043,4.2c0.157,0,0.321-0.027,0.475-0.077c0.167-0.055,0.32-0.148,0.457-0.29
	c0.253-0.271,0.383-0.603,0.383-0.979c0-0.107-0.012-0.216-0.044-0.328c0,0-0.036-0.15-0.081-0.243
	c-0.074-0.155-0.177-0.262-0.177-0.262c-1.001-1.051-2.233-1.588-3.656-1.588c-0.698,0-1.375,0.152-2.007,0.456
	c-0.618,0.297-1.178,0.702-1.659,1.209c-0.482,0.508-0.864,1.095-1.136,1.74c-0.281,0.655-0.424,1.356-0.424,2.085
	c0,0.742,0.141,1.454,0.424,2.118c0.276,0.663,0.657,1.247,1.121,1.743c0.467,0.493,1.024,0.892,1.655,1.19
	C60.004,11.264,60.685,11.416,61.399,11.416 M76.139,4.021c-0.277-0.66-0.655-1.246-1.123-1.74c-0.472-0.497-1.02-0.894-1.638-1.19
	c-0.625-0.295-1.295-0.442-2.009-0.442c-0.72,0.029-1.406,0.191-2.043,0.484c-0.633,0.293-1.189,0.692-1.658,1.178
	c-0.474,0.49-0.847,1.072-1.108,1.722c-0.269,0.656-0.402,1.372-0.402,2.127c0,0.778,0.137,1.51,0.41,2.177
	c0.265,0.663,0.643,1.244,1.116,1.734c0.471,0.494,1.032,0.879,1.657,1.149c0.626,0.27,1.305,0.409,2.019,0.409
	c0.724,0,1.412-0.143,2.043-0.433c0.627-0.283,1.183-0.681,1.644-1.18c0.459-0.492,0.83-1.07,1.105-1.73
	c0.275-0.658,0.408-1.371,0.408-2.128C76.559,5.401,76.42,4.681,76.139,4.021z M73.799,7.235c-0.144,0.348-0.336,0.655-0.576,0.91
	c-0.239,0.264-0.518,0.466-0.845,0.616c-0.324,0.146-0.669,0.222-1.018,0.222c-0.354,0-0.688-0.073-1.016-0.222
	c-0.326-0.149-0.614-0.356-0.852-0.616c-0.234-0.251-0.426-0.559-0.575-0.908c-0.141-0.341-0.208-0.701-0.208-1.076
	c0-0.398,0.067-0.768,0.207-1.103c0.151-0.347,0.336-0.64,0.573-0.889c0.241-0.252,0.529-0.451,0.852-0.59
	c0.323-0.147,0.656-0.216,1.018-0.216V3.068l0.002,0.294c0.777,0.054,1.39,0.335,1.873,0.866c0.477,0.525,0.737,1.18,0.777,1.932
	C74.012,6.532,73.942,6.893,73.799,7.235z M88.686,11.416c0.334,0,0.636-0.118,0.906-0.363C89.861,10.799,90,10.505,90,10.179V4.315
	c0-0.54-0.104-1.052-0.31-1.527c-0.206-0.477-0.489-0.892-0.835-1.232c-0.352-0.347-0.758-0.623-1.217-0.822
	c-0.453-0.195-0.938-0.3-1.435-0.3c-0.805,0-1.633,0.325-2.472,0.97c-0.374-0.317-0.757-0.553-1.145-0.707
	c-0.443-0.172-0.888-0.263-1.325-0.263c-0.524,0-1.026,0.107-1.486,0.316c-0.46,0.204-0.863,0.488-1.195,0.844
	c-0.335,0.355-0.607,0.769-0.8,1.237c-0.198,0.471-0.299,0.97-0.299,1.485v5.77c-0.034,0.384,0.098,0.719,0.387,0.979
	c0.269,0.235,0.574,0.353,0.911,0.353c0.311,0,0.592-0.118,0.842-0.355c0.234-0.235,0.38-0.501,0.429-0.838V4.406
	c0.013-0.376,0.134-0.674,0.369-0.908c0.24-0.235,0.515-0.351,0.842-0.351c0.297,0,0.564,0.116,0.811,0.344
	c0.238,0.228,0.362,0.521,0.373,0.891v5.797c0,0.341,0.14,0.647,0.4,0.887c0.254,0.234,0.547,0.35,0.875,0.35
	c0.366,0,0.671-0.133,0.915-0.395c0.254-0.264,0.379-0.583,0.379-0.953V4.382c0-0.414,0.116-0.712,0.354-0.912
	c0.256-0.217,0.528-0.323,0.834-0.323c0.358,0,0.644,0.121,0.869,0.365c0.229,0.247,0.339,0.531,0.339,0.87v5.686
	c0,0.37,0.126,0.689,0.374,0.952C88.036,11.283,88.338,11.416,88.686,11.416"/>
</svg>
